<?xml version="1.0" standalone="no"?>
<!DOCTYPE svg PUBLIC "-//W3C//DTD SVG 20010904//EN"
 "http://www.w3.org/TR/2001/REC-SVG-20010904/DTD/svg10.dtd">
<svg version="1.0" xmlns="http://www.w3.org/2000/svg"
 width="500.000000pt" height="500.000000pt" viewBox="0 0 500.000000 500.000000"
 preserveAspectRatio="xMidYMid meet">

<g transform="translate(0.000000,500.000000) scale(0.100000,-0.100000)"
fill="#ffff" stroke="none">
<path d="M4367 4602 l-52 -48 -85 -2 c-109 -2 -188 -17 -222 -42 -16 -12 -28
-16 -28 -11 0 17 -103 61 -142 61 -45 0 -58 -19 -58 -86 0 -52 37 -204 50
-204 4 0 3 -19 -2 -42 -16 -71 -17 -72 -32 -59 -17 14 -23 -6 -32 -110 -4 -48
-15 -93 -31 -127 -45 -94 -15 -195 73 -244 83 -47 117 -54 167 -34 24 9 55 28
68 42 l24 26 -51 -27 c-43 -22 -59 -25 -97 -20 l-45 7 37 33 c36 33 36 34 36
113 0 68 -3 85 -23 112 -16 21 -22 41 -20 63 3 28 7 33 38 37 l35 6 -36 7 -36
7 8 54 c24 183 110 329 224 382 66 31 89 30 147 -7 68 -44 139 -126 183 -212
l38 -73 56 4 c31 2 58 6 60 8 7 6 -35 90 -74 149 -26 39 -35 68 -45 135 -23
164 -47 182 -133 102z m-496 -662 c27 -15 49 -63 49 -107 -1 -120 -115 -152
-162 -45 -45 101 27 198 113 152z"/>
<path d="M1763 4535 c-18 -8 -33 -17 -33 -21 0 -10 72 6 94 22 20 14 20 14 -4
14 -14 -1 -40 -7 -57 -15z"/>
<path d="M1910 4509 c35 -38 42 -42 57 -31 10 7 26 15 36 18 9 4 17 10 17 14
0 8 -55 25 -112 35 l-38 7 40 -43z"/>
<path d="M1747 4500 c-49 -9 -58 -19 -64 -72 l-5 -43 79 3 c73 4 81 2 110 -22
39 -33 51 -33 56 2 4 26 4 25 6 -5 1 -41 -15 -51 -42 -25 -31 29 -70 42 -125
42 -74 0 -82 -10 -52 -66 20 -39 32 -50 65 -59 53 -15 97 -39 152 -81 38 -29
52 -34 100 -34 70 0 126 17 158 46 62 57 2 231 -101 295 -40 24 -61 20 -112
-24 -21 -19 -33 -25 -30 -15 9 21 -14 32 -95 45 -21 3 -40 10 -43 14 -3 5 -8
8 -12 8 -4 -1 -24 -5 -45 -9z m381 -166 c13 -20 21 -38 18 -42 -8 -7 -75 71
-70 80 8 13 29 -2 52 -38z m-237 -33 c17 -14 21 -23 14 -30 -13 -13 -84 18
-85 37 0 19 45 14 71 -7z"/>
<path d="M4188 4423 c-37 -6 -56 -30 -37 -48 11 -12 27 -12 84 -4 75 10 91 19
82 43 -6 16 -60 19 -129 9z"/>
<path d="M4220 4356 c-71 -9 -93 -17 -133 -45 -26 -19 -50 -46 -54 -59 -3 -14
-3 -76 1 -139 5 -91 10 -120 25 -139 25 -32 43 -110 39 -169 -3 -46 -2 -48 36
-68 53 -28 186 -36 239 -14 68 29 68 38 -7 299 -65 231 -76 291 -56 329 6 10
7 18 3 18 -4 -1 -46 -6 -93 -13z"/>
<path d="M907 4062 c-279 -115 -514 -215 -522 -223 -10 -10 -12 -24 -7 -49 7
-29 34 -57 167 -174 200 -172 231 -196 265 -196 17 0 206 102 511 276 266 152
487 280 490 285 5 9 4 68 -3 74 -1 2 -79 51 -172 109 -106 66 -179 106 -195
106 -14 -1 -254 -94 -534 -208z m568 138 c-3 -5 -12 -10 -18 -10 -7 0 -6 4 3
10 19 12 23 12 15 0z m-62 -27 c-7 -2 -19 -2 -25 0 -7 3 -2 5 12 5 14 0 19 -2
13 -5z m-33 -17 c0 -2 -13 -9 -30 -15 -35 -12 -41 -5 -7 9 25 10 37 12 37 6z
m124 -31 c23 -18 59 -19 89 -4 21 10 21 10 3 -5 -25 -20 -65 -20 -94 0 -12 8
-26 13 -31 9 -5 -3 -12 -1 -16 5 -9 15 27 11 49 -5z m-194 1 c0 -2 -9 -6 -20
-9 -11 -3 -18 -1 -14 4 5 9 34 13 34 5z m125 -16 c-3 -5 -14 -10 -23 -9 -14 0
-13 2 3 9 27 11 27 11 20 0z m-178 -7 c-13 -13 -86 -41 -91 -35 -3 3 15 13 41
23 57 21 58 21 50 12z m114 -26 c-7 -7 -14 -8 -21 -1 -6 6 -2 10 12 11 16 2
18 -1 9 -10z m-46 -17 c-3 -5 -16 -10 -28 -9 -20 1 -20 2 3 9 14 4 26 8 28 9
2 1 0 -3 -3 -9z m162 4 c-3 -3 -12 -4 -19 -1 -8 3 -5 6 6 6 11 1 17 -2 13 -5z
m133 -11 c11 3 18 1 14 -4 -9 -15 -41 -10 -55 9 -13 15 -12 16 3 3 10 -7 27
-11 38 -8z m-470 3 c0 -2 -13 -9 -30 -15 -35 -12 -41 -5 -7 9 25 10 37 12 37
6z m296 -15 c-6 -9 -46 -22 -46 -15 0 3 10 9 23 14 29 11 29 11 23 1z m-181
-11 c-3 -5 -12 -10 -19 -10 -7 0 -35 -12 -62 -26 -54 -29 -94 -46 -94 -39 0 2
30 18 68 37 56 27 78 37 110 47 2 1 0 -3 -3 -9z m315 5 c0 -9 -79 -45 -97 -45
-10 1 -2 7 17 13 19 7 44 18 55 25 23 13 25 14 25 7z m206 -8 c4 -4 -944 -531
-952 -530 -5 1 -10 5 -11 10 -2 4 185 111 414 238 390 215 414 230 385 237
-17 5 -34 13 -37 18 -4 6 5 5 20 -2 22 -10 31 -9 56 6 17 10 33 15 36 12 3 -3
-7 -10 -22 -16 -15 -6 -25 -13 -22 -16 6 -6 87 33 87 42 0 3 -7 4 -15 1 -8 -4
-17 -2 -20 3 -4 6 75 4 81 -3z m-711 -7 c-3 -5 -14 -10 -23 -10 -9 0 -26 -7
-36 -15 -11 -8 -27 -15 -35 -15 -19 1 43 31 97 49 2 1 0 -3 -3 -9z m311 -9
c-6 -9 -46 -22 -46 -15 0 3 10 9 23 14 29 11 29 11 23 1z m-66 -35 c-7 -7 -13
-7 -20 0 -6 6 -3 10 10 10 13 0 16 -4 10 -10z m-374 -11 c-11 -8 -29 -15 -40
-14 -15 0 -10 4 14 13 46 18 48 18 26 1z m504 1 c0 -11 -19 -15 -25 -6 -3 5 1
10 9 10 9 0 16 -2 16 -4z m140 -11 c-15 -18 -36 -19 -46 -3 -4 7 -3 8 4 4 7
-4 20 -2 29 3 25 14 27 13 13 -4z m-330 -9 c-7 -7 -13 -7 -20 0 -6 6 -3 10 10
10 13 0 16 -4 10 -10z m-223 -21 c-27 -14 -56 -25 -65 -24 -10 0 -7 4 8 9 14
4 39 15 55 24 17 9 35 16 40 16 6 0 -12 -12 -38 -25z m368 15 c-3 -5 -16 -10
-28 -9 -20 1 -20 2 3 9 14 4 26 8 28 9 2 1 0 -3 -3 -9z m-545 -12 c-14 -5 -34
-15 -45 -21 -18 -9 -18 -8 -7 6 8 9 23 18 35 20 38 7 43 6 17 -5z m354 -3
c-10 -8 -23 -15 -27 -15 -4 0 -35 -13 -69 -30 -33 -16 -67 -30 -77 -29 -9 0
-6 4 9 9 14 4 57 24 95 43 74 38 101 47 69 22z m316 -5 c-8 -5 -24 -9 -35 -9
-16 1 -16 2 5 9 35 11 48 11 30 0z m-180 -10 c-8 -5 -19 -10 -25 -10 -5 0 -3
5 5 10 8 5 20 10 25 10 6 0 3 -5 -5 -10z m-571 -20 c-6 -5 -18 -6 -26 -3 -19
8 -16 11 13 11 17 0 22 -3 13 -8z m699 5 c-2 -3 -78 -45 -168 -95 -100 -55
-173 -89 -189 -89 l-26 2 25 4 c14 2 98 44 185 93 140 77 191 102 173 85z
m-179 -9 c-10 -9 -69 -36 -69 -32 0 7 52 35 64 36 5 0 7 -2 5 -4z m-369 -10
c0 -9 -30 -14 -35 -6 -4 6 3 10 14 10 12 0 21 -2 21 -4z m-220 -16 c-8 -5 -24
-9 -35 -9 -16 1 -16 2 5 9 35 11 48 11 30 0z m160 -15 c-14 -8 -32 -14 -40
-14 -8 0 -1 6 15 14 40 18 57 18 25 0z m159 -9 c-2 -1 -31 -17 -65 -34 -43
-21 -65 -27 -75 -20 -12 8 -12 9 1 5 8 -2 40 9 70 24 47 24 84 38 69 25z m168
-2 c-3 -3 -12 -4 -19 -1 -8 3 -5 6 6 6 11 1 17 -2 13 -5z m-573 -15 c-6 -11
-31 -12 -37 -1 -3 4 6 8 19 8 13 1 21 -2 18 -7z m160 -14 c-23 -18 -40 -19
-50 -3 -5 7 -2 9 8 6 8 -4 21 -2 29 3 23 15 34 10 13 -6z m362 -1 c-22 -13
-31 -13 -40 -3 -8 9 -8 10 1 5 7 -4 21 -2 30 3 10 6 23 10 28 10 6 0 -3 -7
-19 -15z m-616 -16 c11 3 12 2 4 -8 -9 -9 -19 -8 -43 4 -17 9 -31 19 -31 22 0
2 12 -2 28 -9 15 -8 34 -12 42 -9z m200 -3 c0 -13 -57 -33 -71 -24 -11 6 -8 9
11 9 14 0 32 5 40 10 17 11 20 12 20 5z m356 -10 c-11 -8 -29 -15 -40 -14 -15
0 -10 4 14 13 46 18 48 18 26 1z m-220 -20 c-11 -8 -29 -15 -40 -14 -15 0 -10
4 14 13 46 18 48 18 26 1z m-302 -20 c16 -12 23 -12 48 1 17 9 32 14 34 12 2
-3 -11 -12 -30 -20 -31 -15 -35 -15 -62 3 -16 10 -24 19 -19 19 6 -1 18 -7 29
-15z m436 -3 c-19 -9 -46 -25 -60 -34 -13 -10 -30 -18 -37 -18 -7 0 -29 -11
-49 -25 -20 -14 -41 -22 -47 -18 -7 4 2 10 20 15 17 4 36 15 43 23 7 8 20 15
29 15 9 0 28 8 41 18 29 20 71 40 85 40 6 0 -6 -7 -25 -16z m-214 -17 c-11 -8
-31 -15 -45 -14 -23 1 -22 2 7 9 18 4 36 10 39 14 4 3 9 6 12 6 3 0 -3 -7 -13
-15z m-100 -40 c42 17 45 11 4 -10 -33 -17 -55 -11 -81 22 -10 12 -6 11 14 -4
27 -21 31 -21 63 -8z m400 0 c-11 -8 -29 -15 -40 -15 -17 1 -15 4 9 15 40 18
55 18 31 0z m-76 -40 c-14 -8 -34 -14 -45 -14 -13 0 -7 5 15 13 47 18 61 18
30 1z m-249 -20 l34 16 -25 -20 c-33 -27 -52 -26 -81 6 l-24 26 31 -22 c30
-22 33 -22 65 -6z m189 -10 c0 -2 -14 -12 -31 -21 -25 -12 -34 -13 -43 -3 -8
9 -7 11 5 7 8 -3 26 0 40 8 28 15 29 16 29 9z m-144 -65 c11 0 30 7 42 16 12
8 22 11 22 6 0 -11 -45 -32 -69 -32 -10 0 -26 10 -37 23 -19 22 -19 22 2 5 11
-10 29 -18 40 -18z"/>
<path d="M4513 4148 c-26 -12 -63 -83 -63 -119 0 -72 61 -159 111 -159 68 0
117 79 104 167 -5 36 -16 56 -45 85 -39 39 -66 46 -107 26z"/>
<path d="M4409 4068 c-33 -125 59 -267 174 -268 45 0 83 18 117 56 l25 27 -33
-23 c-23 -18 -46 -24 -82 -24 -101 0 -184 97 -185 216 0 32 -1 58 -2 58 -1 0
-7 -19 -14 -42z"/>
<path d="M2580 3851 c-49 -5 -55 -9 -59 -31 -1 -14 -8 -28 -15 -32 -24 -16
-92 -7 -140 18 -59 31 -71 24 -71 -46 0 -35 6 -57 23 -79 14 -19 20 -36 15
-44 -4 -6 -8 -63 -8 -125 0 -110 1 -113 23 -119 13 -3 42 2 64 10 48 19 60 15
52 -19 -6 -24 9 -34 21 -14 3 6 19 10 35 10 16 0 32 -4 35 -10 8 -13 25 -13
25 0 0 5 -7 15 -16 22 -41 34 -54 49 -54 64 0 12 11 6 40 -20 74 -67 118 -57
127 28 5 36 8 43 17 32 6 -8 26 -13 46 -12 32 1 35 4 38 34 3 33 4 33 23 17
23 -22 45 -8 58 39 l9 31 1 -30 c2 -46 13 -56 55 -52 l38 4 -6 -36 c-18 -113
-18 -122 -1 -166 16 -44 46 -75 72 -75 7 0 1 11 -12 24 -36 36 -50 100 -37
164 10 47 8 63 -14 140 -41 143 -92 209 -198 258 -52 24 -79 26 -186 15z"/>
<path d="M2990 3777 c0 -2 13 -30 29 -63 16 -32 37 -81 46 -109 16 -49 31 -75
44 -75 10 0 -8 169 -20 192 -15 29 -99 75 -99 55z"/>
<path d="M3262 3572 c-41 -43 -90 -146 -102 -213 -13 -70 -47 -105 -121 -124
-30 -8 -58 -22 -64 -31 -61 -103 -203 -165 -311 -135 -34 9 -40 8 -74 -19 -21
-17 -45 -30 -54 -30 -9 0 -39 -11 -67 -25 -54 -28 -86 -68 -198 -246 -82 -130
-92 -159 -90 -272 1 -106 18 -155 70 -203 32 -30 40 -32 124 -36 69 -4 100
-10 133 -28 52 -27 92 -23 150 15 l40 26 39 -25 c21 -14 53 -29 72 -32 41 -8
28 -17 -54 -39 -56 -14 -65 -14 -251 20 -190 34 -317 43 -389 26 -28 -7 -27
-8 20 -15 130 -19 220 -61 334 -154 38 -31 52 -36 105 -39 59 -4 64 -2 171 60
92 53 112 69 120 95 8 27 14 32 39 32 l30 0 -36 -37 c-97 -99 -104 -244 -16
-286 18 -9 46 -29 62 -46 l30 -31 -25 0 c-29 -1 -256 -45 -284 -56 -15 -6 -12
1 13 29 26 31 32 46 32 83 0 37 -5 51 -31 76 -29 29 -33 30 -87 24 l-57 -6 40
25 c35 23 37 26 12 20 -15 -3 -36 -1 -47 5 -13 7 -20 7 -20 1 0 -17 -38 -32
-84 -35 -55 -3 -130 -47 -159 -92 l-22 -35 -62 6 c-85 8 -240 49 -316 83 -77
35 -128 79 -157 135 l-22 42 6 -67 c3 -37 12 -81 21 -98 30 -57 140 -122 293
-171 l72 -23 0 -43 c0 -53 20 -94 59 -123 l30 -21 12 43 c17 64 36 95 66 110
26 13 30 11 61 -19 27 -27 40 -33 76 -33 40 0 147 29 190 52 10 6 2 -7 -19
-27 -89 -89 -220 -326 -324 -588 -46 -114 -68 -157 -80 -157 -56 1 -201 54
-201 74 -1 32 -15 34 -95 15 -44 -10 -92 -19 -107 -19 -46 0 -68 -32 -68 -95
0 -69 14 -100 55 -120 43 -20 51 -19 142 10 71 23 192 44 298 50 39 2 41 4 98
100 49 83 176 283 286 450 30 46 119 141 125 134 3 -2 0 -25 -5 -49 -6 -25 -9
-72 -7 -104 5 -65 16 -79 117 -147 55 -36 128 -40 179 -9 24 15 34 17 37 8 44
-142 60 -186 75 -198 10 -8 20 -27 24 -42 l6 -26 -93 5 c-108 5 -198 -18 -203
-53 -2 -10 -6 -31 -9 -45 -9 -34 17 -74 55 -87 24 -9 34 -6 62 14 18 13 38 31
44 40 10 12 16 13 38 3 14 -7 26 -15 26 -19 0 -4 -17 -27 -38 -51 -41 -46
-137 -176 -163 -219 -23 -39 -12 -62 50 -102 77 -51 109 -50 136 3 21 40 19
65 -10 87 l-25 20 90 86 c49 47 95 86 102 86 7 0 55 -43 107 -96 81 -82 92
-97 78 -105 -27 -16 -23 -84 8 -114 28 -29 30 -30 86 -10 48 17 59 29 59 63 0
12 5 31 12 41 23 38 -50 225 -118 301 l-35 38 63 19 63 19 41 -43 c22 -24 48
-43 58 -43 24 0 86 63 86 88 0 11 -7 25 -15 32 -8 7 -15 18 -15 25 0 7 -16 25
-36 40 -33 25 -40 27 -97 20 -57 -6 -182 -29 -217 -40 -13 -4 -15 3 -11 37 2
24 9 52 16 63 7 11 16 67 19 125 4 58 9 139 12 182 7 87 -7 76 143 109 201 44
261 93 261 209 0 79 40 398 75 595 14 77 54 259 90 405 76 310 80 358 36 436
-30 51 -46 62 -120 80 l-33 9 -2 115 c-1 138 -15 172 -88 208 -50 25 -212 58
-338 68 -79 7 -79 7 -108 -24z m263 -123 c79 -21 85 -29 85 -124 0 -47 -3 -85
-7 -85 -23 1 -32 22 -35 80 -3 64 -3 65 -41 83 -22 11 -70 21 -115 24 -93 7
-106 -2 -116 -76 -5 -35 -11 -51 -21 -51 -31 0 -9 124 27 154 20 16 34 18 103
12 44 -4 98 -11 120 -17z m-157 -203 c86 -19 185 -38 220 -42 53 -6 62 -9 56
-23 -4 -9 -16 -41 -27 -71 -11 -30 -22 -56 -23 -58 -1 -2 -24 11 -50 28 -56
35 -131 60 -183 60 -26 0 -168 40 -199 57 -2 1 -1 20 3 42 5 32 11 41 26 41
11 0 91 -15 177 -34z m-358 -115 c0 -26 -43 -69 -92 -91 -48 -22 -80 -25 -109
-10 -30 17 -22 30 19 30 40 0 110 38 146 78 21 24 36 21 36 -7z m-317 -518 c2
-5 7 -20 10 -34 6 -25 5 -26 -43 -27 -43 -1 -50 2 -50 19 0 24 72 60 83 42z
m520 -71 c7 -15 42 -56 80 -90 l67 -63 -34 -14 c-20 -8 -38 -15 -42 -15 -4 0
-49 -19 -101 -41 -87 -38 -130 -46 -89 -16 16 12 16 14 -3 31 -23 21 -89 18
-117 -5 -14 -11 -14 -13 0 -21 9 -5 16 -17 16 -28 0 -12 8 -20 23 -22 12 -2
-10 -7 -50 -11 -68 -8 -75 -6 -110 17 -21 14 -45 26 -54 26 -21 0 -43 98 -34
147 16 86 53 101 155 62 79 -30 134 -20 178 32 27 31 40 39 68 39 29 0 37 -5
47 -28z m507 -164 c31 -51 27 -113 -10 -149 -25 -26 -33 -28 -51 -19 -51 28
-61 130 -18 176 31 33 56 30 79 -8z m-415 -413 c-18 -49 -66 -98 -117 -119
-42 -18 -44 -16 -53 66 -4 29 -8 63 -11 75 -5 27 52 69 136 100 l55 21 3 -51
c2 -30 -3 -68 -13 -92z m-26 -361 c27 -35 27 -76 -2 -110 -20 -23 -26 -25 -44
-16 -45 24 -48 107 -6 140 23 17 29 16 52 -14z"/>
<path d="M3066 2468 c-9 -12 -16 -29 -16 -38 0 -50 69 -79 105 -44 33 33 3 46
-67 29 -36 -9 -37 10 -3 48 18 19 22 27 11 27 -8 0 -22 -10 -30 -22z"/>
<path d="M2928 2447 c25 -27 29 -67 7 -67 -8 0 -26 5 -40 12 -30 13 -43 5 -25
-17 15 -18 61 -20 78 -3 20 20 15 76 -7 88 -32 16 -36 12 -13 -13z"/>
<path d="M3041 3456 c-19 -22 -23 -78 -9 -106 28 -54 88 -23 88 45 0 58 -50
96 -79 61z"/>
<path d="M2718 3429 c-18 -10 -25 -39 -10 -39 4 0 15 7 25 14 9 7 29 11 43 8
20 -4 25 -1 22 9 -6 17 -57 23 -80 8z"/>
<path d="M2732 3363 c4 -36 33 -39 33 -3 0 16 -6 26 -18 28 -15 3 -18 -2 -15
-25z"/>
<path d="M2504 3345 c-6 -15 11 -45 26 -45 12 0 20 28 14 45 -8 19 -33 19 -40
0z"/>
<path d="M2597 3288 c-8 -27 8 -47 24 -31 13 13 9 45 -7 50 -6 2 -14 -6 -17
-19z"/>
<path d="M2710 3241 c0 -25 -61 -64 -86 -54 -19 7 -14 -7 14 -39 21 -25 32
-22 32 7 0 25 41 55 75 55 18 0 20 21 3 38 -18 18 -38 14 -38 -7z"/>
<path d="M760 3061 c-377 -130 -389 -135 -437 -160 -59 -29 -73 -54 -73 -126
1 -98 45 -498 59 -523 7 -12 30 -35 52 -51 49 -36 205 -105 284 -125 120 -32
120 -32 512 148 208 96 372 177 391 194 28 25 32 36 32 78 0 42 -20 91 -133
334 -158 337 -145 323 -302 327 l-100 3 -285 -99z m499 23 c13 -10 45 -62 71
-118 26 -56 81 -171 121 -256 79 -168 89 -213 56 -263 -10 -15 -32 -34 -50
-42 -18 -8 -106 -49 -197 -91 -360 -166 -449 -204 -476 -204 -16 0 -43 8 -59
19 -31 19 -40 38 -230 491 -62 147 -66 182 -24 226 26 28 26 28 394 154 298
102 352 113 394 84z"/>
<path d="M1210 2990 c-13 -11 -31 -20 -40 -20 -12 0 -19 -10 -22 -29 -3 -18 0
-28 6 -24 5 4 7 -1 3 -10 -3 -10 -3 -17 2 -17 5 0 8 -7 7 -16 0 -9 5 -18 12
-20 7 -1 8 0 2 3 -21 10 -9 20 40 32 27 7 52 16 55 21 6 10 -14 71 -29 88 -10
10 -17 9 -36 -8z"/>
<path d="M962 2904 c1 -9 12 -22 23 -28 11 -6 23 -15 26 -19 9 -13 59 3 59 19
0 8 -4 14 -10 14 -5 0 -9 5 -7 11 1 7 -18 13 -46 16 -42 4 -48 2 -45 -13z m38
-3 c0 -17 -18 -21 -24 -6 -3 9 0 15 9 15 8 0 15 -4 15 -9z"/>
<path d="M790 2851 c0 -6 -5 -10 -12 -8 -6 1 -14 -7 -16 -18 -2 -11 -8 -23
-13 -26 -14 -8 21 -71 36 -65 7 2 17 0 22 -5 13 -13 76 19 69 36 -2 7 0 17 6
23 6 6 5 17 -4 33 -7 13 -13 25 -13 26 0 0 -17 4 -37 8 -26 5 -38 4 -38 -4z
m50 -36 c20 -25 8 -50 -25 -50 -21 0 -31 5 -33 18 -4 21 14 47 33 47 7 0 18
-7 25 -15z"/>
<path d="M1280 2804 c-44 -19 -50 -30 -37 -65 15 -39 31 -43 83 -20 46 21 52
33 32 76 -13 29 -29 31 -78 9z m38 -41 c-4 -22 -22 -20 -26 1 -2 10 3 16 13
16 10 0 15 -7 13 -17z"/>
<path d="M1090 2732 c-48 -19 -56 -34 -41 -75 12 -31 32 -34 85 -12 41 17 48
49 19 83 -18 20 -19 20 -63 4z"/>
<path d="M610 2703 c-24 -12 -24 -13 -3 -13 12 0 25 5 28 11 11 16 2 17 -25 2z"/>
<path d="M863 2634 c-36 -15 -44 -46 -20 -79 11 -14 21 -16 49 -11 58 11 73
28 62 67 -11 40 -39 47 -91 23z"/>
<path d="M663 2558 c-38 -13 -46 -28 -32 -68 12 -33 23 -36 80 -19 44 14 52
27 38 69 -12 33 -29 36 -86 18z"/>
<path d="M1130 2411 c0 -10 29 -36 34 -30 1 2 -6 12 -16 22 -10 9 -18 13 -18
8z"/>
<path d="M717 2209 c7 -7 15 -10 18 -7 3 3 -2 9 -12 12 -14 6 -15 5 -6 -5z"/>
<path d="M4405 1602 c-32 -11 -51 -25 -63 -48 -9 -18 -7 -30 11 -65 53 -100
279 -174 377 -124 26 13 30 21 30 57 0 36 -6 47 -43 83 -82 79 -228 124 -312
97z"/>
<path d="M986 1554 c-116 -25 -211 -46 -213 -48 -2 -1 48 -254 111 -562 113
-556 113 -559 137 -556 50 5 425 85 441 93 9 5 19 18 23 28 4 15 -168 905
-201 1037 -6 24 -50 55 -76 53 -7 0 -107 -21 -222 -45z m185 -77 c149 -79 184
-314 62 -429 -78 -75 -186 -75 -272 -1 -139 119 -120 370 34 439 48 21 126 17
176 -9z m168 -510 c6 -8 12 -36 13 -63 2 -38 0 -49 -12 -49 -16 0 -44 89 -35
113 6 16 20 15 34 -1z m-69 -307 c11 -11 20 -29 20 -40 0 -26 -34 -60 -62 -60
-53 0 -79 74 -36 104 30 21 54 20 78 -4z"/>
<path d="M996 1389 c-57 -45 -73 -136 -37 -214 58 -130 203 -126 232 5 32 144
-99 285 -195 209z"/>
<path d="M4247 1347 c-26 -79 -47 -154 -47 -168 0 -23 16 -43 62 -77 14 -12
21 2 63 128 l47 142 -25 26 c-14 15 -32 41 -39 59 l-14 32 -47 -142z"/>
<path d="M505 1373 c-121 -47 -222 -88 -224 -90 -3 -2 4 -50 16 -106 11 -56
51 -255 89 -441 l68 -339 250 7 c138 4 252 8 253 10 2 1 -22 122 -52 267 -31
145 -79 380 -107 522 -29 146 -56 257 -62 257 -6 -1 -110 -40 -231 -87z m185
-18 c16 -19 18 -77 3 -82 -6 -2 -14 5 -18 17 -9 28 -40 22 -40 -9 0 -12 -8
-27 -18 -32 -19 -11 -23 -34 -7 -44 6 -4 31 1 55 11 25 9 47 15 50 13 6 -7 76
-341 72 -345 -2 -2 -25 -7 -50 -10 -44 -6 -47 -5 -47 15 0 12 7 35 15 51 13
25 13 29 -1 34 -9 3 -12 11 -8 18 13 20 5 70 -13 84 -15 10 -15 14 -4 28 9 10
10 16 2 16 -6 0 -13 -11 -17 -24 -4 -16 -11 -22 -22 -20 -9 2 -48 -4 -87 -14
-57 -15 -71 -22 -73 -39 -5 -35 26 -44 89 -28 56 15 107 20 96 9 -3 -4 -46
-17 -94 -29 -67 -18 -91 -21 -100 -12 -7 7 -26 73 -42 147 -35 157 -33 169 46
190 26 8 80 26 118 41 84 33 80 33 95 14z m-47 -585 c38 -159 44 -223 18 -194
-9 9 -51 224 -51 259 0 35 17 2 33 -65z m31 63 c12 -42 46 -215 46 -234 0 -12
-5 -19 -12 -17 -12 4 -57 196 -58 246 0 26 16 30 24 5z m-77 -45 c6 -29 18
-88 28 -131 9 -43 14 -81 11 -85 -14 -14 -26 20 -45 130 -24 132 -24 138 -13
138 5 0 13 -24 19 -52z m-70 -44 c7 -43 18 -92 23 -108 12 -35 13 -66 2 -66
-7 0 -19 47 -60 239 -3 17 -1 22 9 19 7 -2 18 -36 26 -84z m28 49 c3 -21 16
-78 27 -126 11 -48 18 -90 15 -93 -13 -13 -26 9 -32 59 -4 28 -13 79 -21 112
-16 71 -17 85 -5 85 5 0 12 -17 16 -37z m220 7 c6 -28 10 -30 51 -30 39 0 46
-3 54 -26 14 -36 12 -94 -2 -98 -7 -3 -26 -7 -42 -11 -26 -5 -28 -8 -22 -43 4
-25 3 -32 -3 -22 -5 8 -11 30 -13 49 -3 32 -1 35 30 42 44 9 47 13 36 56 -10
43 -35 54 -65 27 -18 -16 -20 -16 -38 0 -19 17 -33 64 -24 78 10 18 32 6 38
-22z m110 -310 c0 -18 -52 -27 -67 -12 -17 17 2 33 35 30 20 -2 32 -8 32 -18z
m-280 0 c5 -8 11 -7 20 0 19 16 70 9 70 -10 0 -11 -13 -15 -51 -16 -28 0 -59
-4 -69 -8 -10 -3 -24 -1 -31 5 -10 8 -14 8 -14 0 0 -6 -14 -11 -31 -11 -24 0
-30 4 -27 18 2 12 14 17 41 18 20 1 40 4 44 8 10 10 41 7 48 -4z m185 -5 c0
-16 -64 -22 -74 -6 -9 14 5 21 41 21 23 0 33 -5 33 -15z"/>
<path d="M465 1205 c4 -54 3 -56 -6 -25 -11 35 -33 89 -25 59 2 -9 7 -38 11
-65 9 -70 15 -84 25 -59 7 16 9 16 9 3 1 -11 7 -15 21 -11 23 6 24 13 8 85
-15 68 -33 90 -24 28 8 -53 1 -50 -13 6 -10 36 -10 35 -6 -21z m32 -67 c-3 -8
-6 -5 -6 6 -1 11 2 17 5 13 3 -3 4 -12 1 -19z"/>
<path d="M4146 1055 c-15 -47 -25 -94 -21 -104 3 -11 22 -34 41 -51 43 -37 42
-66 -1 -63 -127 7 -167 4 -186 -13 -51 -46 3 -120 136 -185 142 -69 293 -91
335 -49 11 11 20 29 20 40 0 27 -63 95 -117 126 -35 21 -41 29 -33 44 8 15 15
16 59 7 27 -5 66 -6 86 -3 33 6 39 14 81 97 35 72 41 88 25 80 -45 -24 -168
-3 -261 44 -58 30 -120 81 -120 101 0 36 -18 6 -44 -71z m275 -106 c46 -46
-24 -140 -82 -109 -29 16 -26 74 6 105 30 30 49 31 76 4z"/>
</g>
</svg>
